<svg version="1.1" id="Layer_1" xmlns="http://www.w3.org/2000/svg" xmlns:xlink="http://www.w3.org/1999/xlink" x="0px" y="0px"
	 width="100%" viewBox="0 0 192 192" enable-background="new 0 0 192 192" xml:space="preserve">
<path fill="#000000" opacity="1.000000" stroke="none" 
	d="
M1.000000,32.000000 
	C1.000000,21.683371 1.000000,11.366740 1.000000,1.025055 
	C64.879837,1.025055 128.759674,1.025055 193.000000,1.025055 
	C193.000000,16.685720 193.000000,32.374203 192.727493,48.850216 
	C191.889389,48.880093 191.299759,48.139057 190.762085,47.362080 
	C187.382156,42.477650 183.872726,38.137386 177.432007,36.656246 
	C168.373795,34.573174 159.559982,31.451019 150.560699,29.080557 
	C143.431747,27.202745 136.181030,25.787090 128.569336,24.091202 
	C122.559708,25.343727 116.933304,26.551268 111.377769,28.025826 
	C102.130623,30.480213 92.949181,33.182281 83.700974,35.632492 
	C77.504929,37.274067 71.241302,38.660538 64.591652,40.083378 
	C63.178486,39.994465 62.125713,40.191364 61.193066,39.940922 
	C47.668919,36.309269 34.188251,32.511417 20.629072,29.017633 
	C17.378418,28.180040 13.777975,27.658960 10.523136,28.169664 
	C7.229511,28.686453 4.164917,30.662922 1.000000,32.000000 
z"/>
<path fill="#000000" opacity="1.000000" stroke="none" 
	d="
M193.000000,172.000000 
	C193.000000,178.987686 193.000000,185.975357 193.000000,192.937866 
	C128.999969,192.937866 64.999962,192.937866 1.000000,192.937866 
	C1.000000,181.229584 1.000000,169.583450 1.262131,157.155060 
	C2.368626,157.330673 3.082267,158.461197 4.079932,159.216629 
	C8.450769,162.526123 12.464422,167.037460 17.417303,168.698318 
	C28.196930,172.313049 39.471668,174.450119 50.541759,177.200348 
	C55.369205,178.399658 60.191032,179.621597 65.422394,180.909882 
	C66.939476,180.805206 68.073631,180.714813 69.155960,180.428482 
	C79.706566,177.637375 90.269798,174.890396 100.786591,171.976212 
	C110.213745,169.363953 119.587059,166.557373 129.342178,164.005981 
	C137.994141,166.452316 146.281876,168.752121 154.583832,170.999313 
	C161.994232,173.005219 169.337280,175.417175 176.868408,176.765350 
	C181.998062,177.683609 187.706482,178.086380 191.188354,172.370636 
	C191.406677,172.012222 192.378647,172.112900 193.000000,172.000000 
z"/>
<path fill="#C9D5DD" opacity="1.000000" stroke="none" 
	d="
M65.015411,180.833252 
	C60.191032,179.621597 55.369205,178.399658 50.541759,177.200348 
	C39.471668,174.450119 28.196930,172.313049 17.417303,168.698318 
	C12.464422,167.037460 8.450769,162.526123 4.079932,159.216629 
	C3.082267,158.461197 2.368626,157.330673 1.262131,156.686401 
	C1.000000,115.645775 1.000000,74.291542 1.000000,32.468658 
	C4.164917,30.662922 7.229511,28.686453 10.523136,28.169664 
	C13.777975,27.658960 17.378418,28.180040 20.629072,29.017633 
	C34.188251,32.511417 47.668919,36.309269 61.193066,39.940922 
	C62.125713,40.191364 63.178486,39.994465 64.588257,40.533257 
	C65.003761,44.696560 65.006393,48.332211 64.611710,51.965958 
	C50.887188,48.411499 37.598118,44.706455 24.219126,41.361012 
	C15.569449,39.198147 11.857471,42.230602 11.851549,50.913551 
	C11.830560,81.691925 11.822051,112.470345 11.859738,143.248688 
	C11.869465,151.192703 15.483948,156.099747 23.162998,158.226334 
	C37.097050,162.085159 51.090504,165.729477 65.045364,169.892120 
	C65.026176,173.825027 65.020790,177.329147 65.015411,180.833252 
z"/>
<path fill="#C9D5DD" opacity="1.000000" stroke="none" 
	d="
M193.000000,171.531342 
	C192.378647,172.112900 191.406677,172.012222 191.188354,172.370636 
	C187.706482,178.086380 181.998062,177.683609 176.868408,176.765350 
	C169.337280,175.417175 161.994232,173.005219 154.583832,170.999313 
	C146.281876,168.752121 137.994141,166.452316 129.347565,163.554901 
	C129.038239,159.571274 129.081543,156.208145 129.524658,152.852203 
	C142.800323,156.242538 155.704788,159.521423 168.542740,163.042740 
	C178.309784,165.721741 182.148346,163.054886 182.152771,153.104965 
	C182.165878,123.608734 182.160629,94.112503 182.157028,64.616272 
	C182.155548,52.475258 179.063797,48.449326 167.182831,45.250435 
	C154.482819,41.831009 141.768173,38.465862 129.043976,34.617847 
	C129.013489,30.827856 128.998932,27.497036 128.984390,24.166218 
	C136.181030,25.787090 143.431747,27.202745 150.560699,29.080557 
	C159.559982,31.451019 168.373795,34.573174 177.432007,36.656246 
	C183.872726,38.137386 187.382156,42.477650 190.762085,47.362080 
	C191.299759,48.139057 191.889389,48.880093 192.727493,49.318874 
	C193.000000,89.687561 193.000000,130.375122 193.000000,171.531342 
z"/>
<path fill="#E0E8ED" opacity="1.000000" stroke="none" 
	d="
M128.569336,24.091200 
	C128.998932,27.497036 129.013489,30.827856 129.081406,34.666977 
	C129.134766,35.175278 129.153549,35.297356 128.764282,35.251743 
	C107.220856,40.853504 86.066696,46.500877 64.926582,52.097763 
	C64.940628,52.047276 65.009033,51.967861 65.009033,51.967861 
	C65.006393,48.332211 65.003761,44.696560 65.004517,40.611031 
	C71.241302,38.660538 77.504929,37.274067 83.700974,35.632492 
	C92.949181,33.182281 102.130623,30.480213 111.377769,28.025826 
	C116.933304,26.551268 122.559708,25.343727 128.569336,24.091200 
z"/>
<path fill="#E0E8ED" opacity="1.000000" stroke="none" 
	d="
M129.124863,152.845001 
	C129.081543,156.208145 129.038239,159.571274 128.989532,163.385483 
	C119.587059,166.557373 110.213745,169.363953 100.786591,171.976212 
	C90.269798,174.890396 79.706566,177.637375 69.155960,180.428482 
	C68.073631,180.714813 66.939476,180.805206 65.422394,180.909882 
	C65.020790,177.329147 65.026176,173.825027 65.059097,169.805206 
	C65.086647,169.289505 65.122414,169.117218 65.519753,169.107025 
	C66.895744,168.906540 67.888916,168.771362 68.850906,168.517853 
	C88.966576,163.216766 109.078705,157.902267 129.190720,152.658218 
	C129.189911,152.726013 129.124863,152.845001 129.124863,152.845001 
z"/>
<path fill="#56ACED" opacity="1.000000" stroke="none" 
	d="
M65.072906,169.376404 
	C51.090504,165.729477 37.097050,162.085159 23.162998,158.226334 
	C15.483948,156.099747 11.869465,151.192703 11.859738,143.248688 
	C11.822051,112.470345 11.830560,81.691925 11.851549,50.913551 
	C11.857471,42.230602 15.569449,39.198147 24.219126,41.361012 
	C37.598118,44.706455 50.887188,48.411499 64.611710,51.965958 
	C65.009033,51.967861 64.940628,52.047276 64.953445,52.553345 
	C64.934830,60.445946 64.903389,67.832481 64.580276,75.277382 
	C64.046753,75.885567 63.825447,76.445564 63.559193,76.983315 
	C62.733402,78.651131 61.890522,80.310493 61.054276,81.973137 
	C59.325218,80.929337 57.596161,79.885544 55.867104,78.841743 
	C56.944622,77.265656 57.955055,75.637062 59.129265,74.136642 
	C59.678619,73.434662 60.544357,72.980286 61.971710,71.860687 
	C56.319054,68.897224 52.153080,64.591164 45.271576,67.091545 
	C42.055157,68.260223 37.817528,69.866364 35.048561,65.622917 
	C32.876106,62.293625 27.979132,61.064323 23.802006,63.147697 
	C19.642191,65.222435 19.030880,68.578262 20.435503,72.653641 
	C25.892326,71.995071 27.910219,73.572067 26.810225,78.845459 
	C25.713314,84.104065 27.956787,88.080856 30.530464,91.777542 
	C33.844460,96.537590 37.879715,100.823631 41.834259,105.101250 
	C45.418312,108.978134 49.310913,112.569771 53.102840,116.579750 
	C53.983742,117.560760 54.829277,118.249191 55.748093,119.328117 
	C54.083046,124.467117 52.793957,128.990524 57.105434,133.372742 
	C61.911228,138.257385 62.034126,141.810074 58.761425,147.958984 
	C57.853996,149.663895 57.401520,151.610977 56.740311,153.446945 
	C57.178932,153.756927 57.617554,154.066910 58.056171,154.376892 
	C60.360928,152.941498 62.665684,151.506104 64.984390,150.534393 
	C65.039703,157.037796 65.081062,163.077499 65.122421,169.117218 
	C65.122414,169.117218 65.086647,169.289505 65.072906,169.376404 
z"/>
<path fill="#56ACEB" opacity="1.000000" stroke="none" 
	d="
M129.097351,35.126148 
	C141.768173,38.465862 154.482819,41.831009 167.182831,45.250435 
	C179.063797,48.449326 182.155548,52.475258 182.157028,64.616272 
	C182.160629,94.112503 182.165878,123.608734 182.152771,153.104965 
	C182.148346,163.054886 178.309784,165.721741 168.542740,163.042740 
	C155.704788,159.521423 142.800323,156.242538 129.524658,152.852203 
	C129.124863,152.845001 129.189911,152.726013 129.135345,152.229767 
	C129.016098,130.143600 128.951401,108.553673 128.894318,86.635201 
	C128.946106,85.872345 128.990280,85.438042 129.399551,85.037193 
	C131.117935,87.338440 132.536911,89.570137 133.808136,91.883041 
	C135.446182,94.863319 136.965881,97.908646 138.536545,100.925957 
	C138.945984,100.700706 139.355438,100.475449 139.764877,100.250191 
	C140.161743,97.807663 140.558624,95.365135 140.955490,92.922607 
	C141.421646,92.807663 141.887802,92.692719 142.353958,92.577774 
	C144.792465,96.424309 147.230972,100.270844 149.145859,103.291420 
	C151.935608,100.751122 154.118973,98.719566 156.350769,96.742714 
	C158.680008,94.679558 160.326462,92.672997 159.473892,89.009743 
	C159.096985,87.390266 160.759674,85.062065 161.959030,83.386780 
	C162.854645,82.135750 164.492218,81.415886 165.799393,80.459496 
	C164.710678,79.069893 163.621979,77.680290 162.114929,75.756729 
	C162.453400,75.037430 163.113235,73.635139 164.049286,71.645859 
	C166.176315,73.221909 167.809677,74.432167 169.443039,75.642426 
	C170.049866,76.260757 170.656677,76.879082 171.263504,77.497414 
	C172.254959,75.607353 173.530243,73.795265 174.082687,71.784592 
	C174.274033,71.088257 172.867477,69.438065 171.856750,69.007263 
	C163.347961,65.380646 154.772324,61.909161 146.181320,58.479893 
	C145.358932,58.151627 144.288437,58.497421 143.345428,58.404911 
	C142.275284,58.299927 140.483459,58.350498 140.270660,57.823006 
	C138.187790,52.659950 133.111603,53.110661 129.078140,51.417343 
	C129.048630,51.257805 128.932831,50.954681 128.946838,50.491249 
	C129.025085,45.117661 129.089325,40.207508 129.153549,35.297356 
	C129.153549,35.297356 129.134766,35.175278 129.097351,35.126148 
M157.070679,118.233292 
	C146.025879,119.623810 144.777161,121.308968 146.224655,133.337341 
	C147.670807,133.034058 149.404694,133.154144 150.453140,132.364334 
	C154.361786,129.419861 156.042847,132.130371 157.774719,134.917755 
	C158.206726,135.613052 158.249130,136.682892 158.822174,137.133331 
	C160.562042,138.501007 162.686478,140.857941 164.265656,140.580292 
	C166.276703,140.226700 168.765610,137.973907 169.459290,135.985413 
	C170.221024,133.801819 170.083420,130.242401 168.734222,128.598343 
	C165.609009,124.790176 161.516846,121.775566 157.070679,118.233292 
M163.780777,119.594780 
	C165.638229,120.199928 167.495682,120.805069 169.353119,121.410217 
	C169.502441,120.917786 169.651764,120.425354 169.801086,119.932922 
	C167.080627,118.020630 164.360184,116.108345 161.639725,114.196053 
	C161.279205,114.518539 160.918701,114.841019 160.558182,115.163498 
	C161.412567,116.545792 162.266937,117.928078 163.780777,119.594780 
z"/>
<path fill="#88C9F7" opacity="1.000000" stroke="none" 
	d="
M128.764282,35.251743 
	C129.089325,40.207508 129.025085,45.117661 128.596466,50.592384 
	C125.311050,52.248611 121.634583,52.587250 119.632942,54.595341 
	C115.948112,58.292023 112.071594,59.175991 107.133614,58.941521 
	C101.556992,58.676720 98.143295,62.903347 98.763489,69.565422 
	C101.266022,67.909973 103.289780,66.475494 105.410973,65.203499 
	C106.710205,64.424408 108.144997,63.857056 109.568825,63.329262 
	C109.674194,63.290203 110.581963,64.655228 110.440788,64.834145 
	C109.469635,66.064880 108.512909,67.535217 107.186104,68.211288 
	C104.088234,69.789803 100.687393,70.774635 97.592964,72.358734 
	C94.727234,73.825760 89.123322,73.244392 91.605293,79.472733 
	C91.790474,79.937424 90.223183,81.143974 89.415245,81.950203 
	C88.330383,83.032776 87.191620,84.061325 85.019791,86.108780 
	C88.802063,86.758087 91.167572,87.164185 93.713135,87.746719 
	C94.012115,88.041916 94.131042,88.160660 94.072571,88.559860 
	C90.991898,91.575005 87.959183,94.186668 85.215614,97.073174 
	C81.080383,101.423874 80.480705,107.453171 83.952454,113.495758 
	C87.919197,110.854622 91.783340,108.148750 95.797112,105.686836 
	C97.075340,104.902809 98.782967,104.395180 100.229568,104.518463 
	C100.805756,104.567566 101.913658,106.949692 101.578339,107.790939 
	C98.371574,115.835953 104.450737,121.558830 106.446526,129.729355 
	C111.603088,124.666313 114.956894,119.711304 117.173096,113.896927 
	C118.862640,109.464302 120.574707,105.040077 122.310051,100.625206 
	C122.921944,99.068489 123.632500,97.550552 124.213768,96.209297 
	C121.502396,95.540276 119.448257,95.033432 117.394119,94.526581 
	C117.303505,93.804855 117.212891,93.083122 117.122276,92.361397 
	C123.752960,95.296249 125.795937,90.214523 128.886719,86.963753 
	C128.951401,108.553673 129.016098,130.143600 129.136169,152.161972 
	C109.078705,157.902267 88.966576,163.216766 68.850906,168.517853 
	C67.888916,168.771362 66.895744,168.906540 65.519760,169.107025 
	C65.081062,163.077499 65.039703,157.037796 65.048637,150.342407 
	C65.098930,149.686722 65.197594,149.295029 65.482079,149.114075 
	C71.487740,140.884659 77.208908,132.836197 82.629639,125.210396 
	C77.079079,120.546082 72.695869,114.882072 65.031204,115.986649 
	C65.037674,115.900101 65.061256,115.728119 65.052628,115.278870 
	C65.056915,107.884041 65.069839,100.938454 65.466736,93.964806 
	C67.542885,92.948174 69.629478,92.294998 70.827492,90.886192 
	C72.327110,89.122711 73.096794,86.738503 74.470810,84.057938 
	C71.962288,81.980820 68.641937,79.231483 65.245972,76.271271 
	C65.021400,75.797478 64.921936,75.517021 64.871948,75.219017 
	C64.903389,67.832481 64.934830,60.445946 64.939407,52.603828 
	C86.066696,46.500877 107.220856,40.853504 128.764282,35.251743 
z"/>
<path fill="#5C923F" opacity="1.000000" stroke="none" 
	d="
M64.580276,75.277382 
	C64.921936,75.517021 65.021400,75.797478 65.163177,76.775978 
	C65.077271,82.729149 64.998535,87.966721 64.568039,93.172791 
	C61.406086,96.160751 58.595886,99.180214 56.851219,101.054794 
	C53.501884,101.542961 50.419174,101.076645 49.257080,102.355537 
	C46.960438,104.883026 49.572147,108.562325 55.139507,111.475891 
	C54.445114,113.088272 53.756294,114.687721 53.067474,116.287170 
	C49.310913,112.569771 45.418312,108.978134 41.834259,105.101250 
	C37.879715,100.823631 33.844460,96.537590 30.530464,91.777542 
	C27.956787,88.080856 25.713314,84.104065 26.810225,78.845459 
	C27.910219,73.572067 25.892326,71.995071 20.435503,72.653641 
	C19.030880,68.578262 19.642191,65.222435 23.802006,63.147697 
	C27.979132,61.064323 32.876106,62.293625 35.048561,65.622917 
	C37.817528,69.866364 42.055157,68.260223 45.271576,67.091545 
	C52.153080,64.591164 56.319054,68.897224 61.971710,71.860687 
	C60.544357,72.980286 59.678619,73.434662 59.129265,74.136642 
	C57.955055,75.637062 56.944622,77.265656 55.867104,78.841743 
	C57.596161,79.885544 59.325218,80.929337 61.054276,81.973137 
	C61.890522,80.310493 62.733402,78.651131 63.559193,76.983315 
	C63.825447,76.445564 64.046753,75.885567 64.580276,75.277382 
z"/>
<path fill="#5C9240" opacity="1.000000" stroke="none" 
	d="
M65.197594,149.295029 
	C65.197594,149.295029 65.098930,149.686722 65.034683,149.878723 
	C62.665684,151.506104 60.360928,152.941498 58.056171,154.376892 
	C57.617554,154.066910 57.178932,153.756927 56.740311,153.446945 
	C57.401520,151.610977 57.853996,149.663895 58.761425,147.958984 
	C62.034126,141.810074 61.911228,138.257385 57.105434,133.372742 
	C52.793957,128.990524 54.083046,124.467117 56.116035,119.228821 
	C59.294212,117.735390 62.177734,116.731750 65.061256,115.728119 
	C65.061256,115.728119 65.037674,115.900101 65.023956,116.449478 
	C65.072693,127.764244 65.135147,138.529633 65.197594,149.295029 
z"/>
<path fill="#56ABE7" opacity="1.000000" stroke="none" 
	d="
M65.052628,115.278870 
	C62.177734,116.731750 59.294212,117.735390 56.042755,118.838326 
	C54.829277,118.249191 53.983742,117.560760 53.102840,116.579750 
	C53.756294,114.687721 54.445114,113.088272 55.139507,111.475891 
	C49.572147,108.562325 46.960438,104.883026 49.257080,102.355537 
	C50.419174,101.076645 53.501884,101.542961 56.851219,101.054794 
	C58.595886,99.180214 61.406086,96.160751 64.596474,93.372406 
	C64.976669,93.603516 65.082764,93.992874 65.082764,93.992874 
	C65.069839,100.938454 65.056915,107.884041 65.052628,115.278870 
z"/>
<path fill="#77B259" opacity="1.000000" stroke="none" 
	d="
M93.533081,87.570274 
	C91.167572,87.164185 88.802063,86.758087 85.019791,86.108780 
	C87.191620,84.061325 88.330383,83.032776 89.415245,81.950203 
	C90.223183,81.143974 91.790474,79.937424 91.605293,79.472733 
	C89.123322,73.244392 94.727234,73.825760 97.592964,72.358734 
	C100.687393,70.774635 104.088234,69.789803 107.186104,68.211288 
	C108.512909,67.535217 109.469635,66.064880 110.440788,64.834145 
	C110.581963,64.655228 109.674194,63.290203 109.568825,63.329262 
	C108.144997,63.857056 106.710205,64.424408 105.410973,65.203499 
	C103.289780,66.475494 101.266022,67.909973 98.763489,69.565422 
	C98.143295,62.903347 101.556992,58.676720 107.133614,58.941521 
	C112.071594,59.175991 115.948112,58.292023 119.632942,54.595341 
	C121.634583,52.587250 125.311050,52.248611 128.582458,51.055817 
	C128.932831,50.954681 129.048630,51.257805 129.043045,51.921028 
	C129.036469,63.390747 129.035461,74.197243 129.034470,85.003738 
	C128.990280,85.438042 128.946106,85.872345 128.894318,86.635201 
	C125.795937,90.214523 123.752960,95.296249 117.122276,92.361397 
	C117.212891,93.083122 117.303505,93.804855 117.394119,94.526581 
	C119.448257,95.033432 121.502396,95.540276 124.213768,96.209297 
	C123.632500,97.550552 122.921944,99.068489 122.310051,100.625206 
	C120.574707,105.040077 118.862640,109.464302 117.173096,113.896927 
	C114.956894,119.711304 111.603088,124.666313 106.446526,129.729355 
	C104.450737,121.558830 98.371574,115.835953 101.578339,107.790939 
	C101.913658,106.949692 100.805756,104.567566 100.229568,104.518463 
	C98.782967,104.395180 97.075340,104.902809 95.797112,105.686836 
	C91.783340,108.148750 87.919197,110.854622 83.952454,113.495758 
	C80.480705,107.453171 81.080383,101.423874 85.215614,97.073174 
	C87.959183,94.186668 90.991898,91.575005 94.505569,88.476006 
	C98.063461,88.111702 101.010956,88.111702 104.015755,88.111702 
	C104.881203,84.894447 105.827522,82.081078 106.335304,79.190674 
	C106.587830,77.753273 106.035973,76.174561 105.848007,74.659775 
	C104.388939,75.203766 102.411385,75.326546 101.565041,76.368317 
	C98.673157,79.927986 96.178986,83.810760 93.533081,87.570274 
z"/>
<path fill="#5C923E" opacity="1.000000" stroke="none" 
	d="
M129.399551,85.037193 
	C129.035461,74.197243 129.036469,63.390747 129.072556,52.080566 
	C133.111603,53.110661 138.187790,52.659950 140.270660,57.823006 
	C140.483459,58.350498 142.275284,58.299927 143.345428,58.404911 
	C144.288437,58.497421 145.358932,58.151627 146.181320,58.479893 
	C154.772324,61.909161 163.347961,65.380646 171.856750,69.007263 
	C172.867477,69.438065 174.274033,71.088257 174.082687,71.784592 
	C173.530243,73.795265 172.254959,75.607353 171.263504,77.497414 
	C170.656677,76.879082 170.049866,76.260757 169.443039,75.642426 
	C167.809677,74.432167 166.176315,73.221909 164.049286,71.645859 
	C163.113235,73.635139 162.453400,75.037430 162.114929,75.756729 
	C163.621979,77.680290 164.710678,79.069893 165.799393,80.459496 
	C164.492218,81.415886 162.854645,82.135750 161.959030,83.386780 
	C160.759674,85.062065 159.096985,87.390266 159.473892,89.009743 
	C160.326462,92.672997 158.680008,94.679558 156.350769,96.742714 
	C154.118973,98.719566 151.935608,100.751122 149.145859,103.291420 
	C147.230972,100.270844 144.792465,96.424309 142.353958,92.577774 
	C141.887802,92.692719 141.421646,92.807663 140.955490,92.922607 
	C140.558624,95.365135 140.161743,97.807663 139.764877,100.250191 
	C139.355438,100.475449 138.945984,100.700706 138.536545,100.925957 
	C136.965881,97.908646 135.446182,94.863319 133.808136,91.883041 
	C132.536911,89.570137 131.117935,87.338440 129.399551,85.037193 
z"/>
<path fill="#5C9242" opacity="1.000000" stroke="none" 
	d="
M157.443695,118.336243 
	C161.516846,121.775566 165.609009,124.790176 168.734222,128.598343 
	C170.083420,130.242401 170.221024,133.801819 169.459290,135.985413 
	C168.765610,137.973907 166.276703,140.226700 164.265656,140.580292 
	C162.686478,140.857941 160.562042,138.501007 158.822174,137.133331 
	C158.249130,136.682892 158.206726,135.613052 157.774719,134.917755 
	C156.042847,132.130371 154.361786,129.419861 150.453140,132.364334 
	C149.404694,133.154144 147.670807,133.034058 146.224655,133.337341 
	C144.777161,121.308968 146.025879,119.623810 157.443695,118.336243 
z"/>
<path fill="#5B9555" opacity="1.000000" stroke="none" 
	d="
M163.451050,119.452576 
	C162.266937,117.928078 161.412567,116.545792 160.558182,115.163498 
	C160.918701,114.841019 161.279205,114.518539 161.639725,114.196053 
	C164.360184,116.108345 167.080627,118.020630 169.801086,119.932922 
	C169.651764,120.425354 169.502441,120.917786 169.353119,121.410217 
	C167.495682,120.805069 165.638229,120.199928 163.451050,119.452576 
z"/>
<path fill="#77B258" opacity="1.000000" stroke="none" 
	d="
M65.482079,149.114075 
	C65.135147,138.529633 65.072693,127.764244 65.017494,116.536026 
	C72.695869,114.882072 77.079079,120.546082 82.629639,125.210396 
	C77.208908,132.836197 71.487740,140.884659 65.482079,149.114075 
z"/>
<path fill="#77B25C" opacity="1.000000" stroke="none" 
	d="
M65.466736,93.964806 
	C65.082764,93.992874 64.976669,93.603516 64.948227,93.403908 
	C64.998535,87.966721 65.077271,82.729149 65.238800,76.986862 
	C68.641937,79.231483 71.962288,81.980820 74.470810,84.057938 
	C73.096794,86.738503 72.327110,89.122711 70.827492,90.886192 
	C69.629478,92.294998 67.542885,92.948174 65.466736,93.964806 
z"/>
<path fill="#88C9F7" opacity="1.000000" stroke="none" 
	d="
M93.713135,87.746719 
	C96.178986,83.810760 98.673157,79.927986 101.565041,76.368317 
	C102.411385,75.326546 104.388939,75.203766 105.848007,74.659775 
	C106.035973,76.174561 106.587830,77.753273 106.335304,79.190674 
	C105.827522,82.081078 104.881203,84.894447 104.015755,88.111702 
	C101.010956,88.111702 98.063461,88.111702 94.682968,88.195557 
	C94.131042,88.160660 94.012115,88.041916 93.713135,87.746719 
z"/>
</svg>